HIERARCHY
ROOT pelvis
{
  OFFSET 0 100 0
  CHANNELS 6 Xposition Yposition Zposition Zrotation Xrotation Yrotation
  JOINT pelvis_right_femur
  {
    OFFSET -10.78128 -3.44521 -0.5502486
    CHANNELS 3 Zrotation Xrotation Yrotation
    JOINT right_femur_tibia
    {
      OFFSET -0.8047443 -44.0398 -0.1307829
      CHANNELS 3 Zrotation Xrotation Yrotation
      JOINT right_tibia_foot
      {
        OFFSET 3.006224 -47.83518 -5
        CHANNELS 3 Zrotation Xrotation Yrotation
        End Site
        {
          OFFSET 0 -5 15
        }
      }
    }
  }
  JOINT pelvis_left_femur
  {
    OFFSET 10.78128 -3.44521 -0.5502486
    CHANNELS 3 Zrotation Xrotation Yrotation
    JOINT left_femur_tibia
    {
      OFFSET 0.8047443 -44.0398 -0.1307829
      CHANNELS 3 Zrotation Xrotation Yrotation
      JOINT left_tibia_foot
      {
        OFFSET -4.370144 -48.10324 -4.275266
        CHANNELS 3 Zrotation Xrotation Yrotation
        End Site
        {
          OFFSET 0 -5 15
        }
      }
    }
  }
  JOINT pelvis_spine1
  {
    OFFSET 0 6.468898 -3.129235
    CHANNELS 3 Zrotation Xrotation Yrotation
    JOINT spine1
    {
      OFFSET 0 23.15396 4.99043
      CHANNELS 3 Zrotation Xrotation Yrotation
      JOINT spine2
      {
        OFFSET 0 20.79997 -5.064912
        CHANNELS 3 Zrotation Xrotation Yrotation
        JOINT neck
        {
          OFFSET 0 14.38658 9.616178
          CHANNELS 3 Zrotation Xrotation Yrotation
          End Site
          {
            OFFSET 0 20 0
          }
        }
      }
      JOINT right_manubrium
      {
        OFFSET -5.722621 16.35077 3.967754
        CHANNELS 3 Zrotation Xrotation Yrotation
        JOINT right_clavicle
        {
          OFFSET -13.16364 1.694482 -4.693211
          CHANNELS 3 Zrotation Xrotation Yrotation
          JOINT right_humerus
          {
            OFFSET -28.5034 -0.3100689 -2.792744
            CHANNELS 3 Zrotation Xrotation Yrotation
            JOINT right_radius
            {
              OFFSET -25.15693 0.02248979 -1.271978
              CHANNELS 3 Zrotation Xrotation Yrotation
              End Site
              {
                OFFSET -15 0 0
              }
            }
          }
        }
      }
      JOINT left_manubrium
      {
        OFFSET 5.722621 16.35077 3.967754
        CHANNELS 3 Zrotation Xrotation Yrotation
        JOINT left_clavicle
        {
          OFFSET 13.16364 1.694482 -4.693211
          CHANNELS 3 Zrotation Xrotation Yrotation
          JOINT left_humerus
          {
            OFFSET 29.39168 -1.063119 -2.237045
            CHANNELS 3 Zrotation Xrotation Yrotation
            JOINT left_radius
            {
              OFFSET 24.59957 -0.9528479 0.9047498
              CHANNELS 3 Zrotation Xrotation Yrotation
              End Site
              {
                OFFSET 15 -0 -0
              }
            }
          }
        }
      }
    }
  }
}
MOTION
Frames: 19
Frame Time: 0.0416666666667
84.96232 104.6061 3008.752 -0.6317173 -6.793445 -4.933059 5.748023 5.933488 3.185025 -0 11.24167 -0 -5.844743 -11.75943 -3.396029 -0.3672988 -13.52903 -5.583137 -0 47.55052 -0 -4.962131 -4.445811 17.31007 1.425829 -2.897224 6.135275 0.1324636 15.54998 -6.02894 1.401829 21.79134 3.241757 1.391056 -21.55853 5.397522 -5.025095 -27.54631 11.81382 94.68008 15.60136 -15.94801 -0 0 18.87483 -19.5829 8.488793 8.943235 4.421046 -24.86546 -7.626904 -92.86368 12.39359 28.68858 0 0 -14.04863 12.64696 16.00452 -2.128829
84.80138 104.3576 3014.594 -0.5799516 -6.589674 -5.811295 5.142578 10.01115 2.441215 -0 9.576377 -0 -5.701861 -12.95077 -2.465078 0.5446526 -17.89772 -4.779543 -0 38.33998 -0 -4.318743 -4.813231 17.97947 1.473445 -2.878061 6.802433 -0.1888672 15.61095 -5.419141 1.408156 21.75285 3.090191 1.34826 -21.48306 5.243375 -5.019242 -28.57173 11.85074 93.60736 15.61781 -13.97271 -0 0 21.01432 -20.17007 8.478429 9.674493 4.110285 -23.95922 -7.407177 -94.27996 12.20667 31.38747 0 0 -11.435 11.77938 16.03511 -1.003464
84.77259 103.5736 3020.562 -0.4868699 -6.413916 -6.57926 4.475413 13.47508 1.785285 -0 8.925467 -0 -5.436203 -13.68681 -1.632783 1.288361 -21.51068 -4.124214 -0 29.02469 -0 -3.668748 -5.413561 18.59142 1.460712 -2.796535 7.460821 -0.5319716 15.586 -4.765919 1.428649 21.73687 2.974508 1.331142 -21.28423 5.111589 -4.893703 -29.42792 11.88633 92.36787 15.7482 -11.87227 -0 0 23.10933 -20.90374 8.54513 10.49954 3.810108 -22.93489 -7.130376 -95.62915 12.04303 33.85802 0 0 -8.753334 10.76519 15.92765 0.2756214
84.85706 102.4314 3026.629 -0.3721541 -6.375289 -7.21327 3.788126 16.10449 1.416809 -0 9.964455 -0 -5.038065 -13.8206 -1.057837 1.672587 -23.99765 -3.792218 -0 21.55141 -0 -3.158687 -6.01585 19.1132 1.37995 -2.65206 8.036492 -0.8604037 15.4627 -4.136307 1.465007 21.74916 2.910916 1.341788 -20.96484 5.022023 -4.647448 -29.99445 11.91564 91.06683 15.98898 -9.85619 -0 0 24.92296 -21.72447 8.690995 11.34199 3.550915 -21.88405 -6.81925 -96.74847 11.97344 35.80523 0 0 -6.297532 9.678702 15.668 1.614281
85.01784 101.2019 3032.792 -0.252265 -6.580272 -7.68901 3.073256 17.75094 1.401142 -0 13.18731 -0 -4.469899 -13.09383 -0.8666754 1.580845 -25.07079 -3.822966 -0 17.15229 -0 -2.949531 -6.484836 19.44762 1.236558 -2.461329 8.433848 -1.120716 15.25105 -3.630076 1.513039 21.79038 2.914629 1.38109 -20.56351 4.992493 -4.306052 -30.15672 11.93224 89.88359 16.33087 -8.238335 -0 0 26.15112 -22.51444 8.902599 12.07607 3.375893 -20.96368 -6.51956 -97.439 12.06222 36.89483 0 0 -4.465521 8.681837 15.28477 2.812065
85.21618 100.1656 3039.081 -0.1287443 -7.054862 -7.972753 2.305247 18.40953 1.672851 -0 18.60785 -0 -3.706607 -11.38317 -1.087702 1.029102 -24.69576 -4.14538 -0 15.78228 -0 -3.094096 -6.835061 19.53155 1.05173 -2.253109 8.603793 -1.277933 14.98544 -3.314083 1.563883 21.85305 2.985688 1.445605 -20.14131 5.023865 -3.915864 -29.90454 11.93271 88.96338 16.75525 -7.229902 -0 0 26.64113 -23.16353 9.152743 12.60453 3.30993 -20.29832 -6.273657 -97.61126 12.31381 37.0091 0 0 -3.486627 7.924538 14.84666 3.687787
85.42646 99.54051 3045.527 0.01231717 -7.721398 -8.024747 1.477608 18.09079 2.107388 -0 25.77648 -0 -2.765066 -8.801375 -1.665777 0.1070656 -22.99407 -4.685946 -0 16.46494 -0 -3.503906 -7.202139 19.37832 0.8552026 -2.055588 8.569215 -1.332442 14.70845 -3.190312 1.609496 21.92494 3.105171 1.524704 -19.75569 5.100326 -3.529355 -29.34567 11.91777 88.35926 17.22157 -6.839108 -0 0 26.4734 -23.61689 9.408517 12.90265 3.343036 -19.91931 -6.100452 -97.33821 12.67104 36.31734 0 0 -3.314337 7.456572 14.42705 4.190289
85.64022 99.45484 3052.129 0.1915294 -8.441495 -7.806724 0.6174579 16.68131 2.581268 -0 34.0353 -0 -1.70023 -5.596047 -2.520697 -1.098359 -20.04307 -5.427832 -0 18.02902 -0 -4.018055 -7.772378 19.04004 0.6722268 -1.887906 8.378194 -1.300745 14.45298 -3.230999 1.645627 21.99574 3.249736 1.605889 -19.4439 5.204012 -3.188772 -28.60902 11.89003 88.0743 17.68023 -6.983117 -0 0 25.80911 -23.86136 9.643119 12.98478 3.451086 -19.80633 -6.002788 -96.74562 13.06554 35.0665 0 0 -3.795738 7.26044 14.07518 4.352258
85.86257 99.93934 3058.828 0.4219531 -9.040189 -7.296601 -0.2004463 13.96669 2.994162 -0 42.53042 -0 -0.6204185 -2.136504 -3.55383 -2.500328 -15.8741 -6.40044 -0 19.49434 -0 -4.447746 -8.717094 18.59049 0.5180044 -1.761075 8.056736 -1.192573 14.23852 -3.421019 1.670478 22.05994 3.404798 1.681067 -19.22596 5.324954 -2.921167 -27.76774 11.85178 88.12179 18.09131 -7.621795 -0 0 24.73657 -23.88948 9.840151 12.85671 3.620437 -19.95062 -5.983389 -95.90415 13.44806 33.39054 0 0 -4.849425 7.325797 13.81711 4.19242
86.10392 100.9108 3065.491 0.6863429 -9.303346 -6.518954 -0.8292521 9.811035 3.282058 -0 49.92364 -0 0.2571362 0.9603223 -4.592846 -3.950249 -10.6853 -7.639433 -0 20.19368 -0 -4.581164 -10.1113 18.14855 0.4024417 -1.683943 7.604454 -1.006311 14.07861 -3.76656 1.682664 22.11481 3.563502 1.745791 -19.1173 5.459772 -2.747505 -26.84627 11.80475 88.54644 18.41837 -8.783341 -0 0 23.25822 -23.68132 9.986982 12.50181 3.850354 -20.37332 -6.051305 -94.82499 13.78001 31.30831 0 0 -6.489913 7.674497 13.66979 3.685879
86.36532 102.1567 3071.925 0.917345 -9.030969 -5.573447 -1.06703 4.409744 3.416816 -0 54.32012 -0 0.6055696 2.883 -5.369325 -5.194405 -5.058138 -9.100425 -0 19.88132 -0 -4.247186 -11.84456 17.85169 0.3341587 -1.664775 7.021058 -0.7402841 13.98511 -4.27328 1.68113 22.15798 3.719308 1.796061 -19.13105 5.605326 -2.686929 -25.86679 11.75178 89.38921 18.61576 -10.48914 -0 0 21.37635 -23.2208 10.06926 11.90595 4.139065 -21.09396 -6.214378 -93.52287 14.01958 28.83803 0 0 -8.729753 8.328883 13.64289 2.807855
86.62478 103.3666 3077.988 1.02126 -8.18309 -4.610655 -0.7845093 -1.597697 3.349982 -0 54.02526 -0 0.1872684 3.136568 -5.660628 -5.947332 0.13977 -10.53364 -0 18.68094 -0 -3.478386 -13.63891 17.71149 0.3154692 -1.703534 6.341982 -0.4112887 13.96065 -4.909065 1.66685 22.18767 3.862602 1.829167 -19.26162 5.753261 -2.741075 -24.88538 11.69864 90.59986 18.64533 -12.62544 -0 0 19.20518 -22.54303 10.07792 11.1088 4.466962 -22.06647 -6.46022 -92.08691 14.13016 26.12496 0 0 -11.42999 9.248023 13.72283 1.61407
86.84184 104.2356 3083.688 0.9509575 -6.957172 -3.753045 -0.07445216 -7.460849 2.992152 -0 48.87161 -0 -0.8943363 2.03955 -5.499272 -6.098589 4.305493 -11.55825 -0 16.87315 -0 -2.561002 -15.24488 17.5394 0.3342414 -1.784505 5.635988 -0.05592614 13.98904 -5.600307 1.643297 22.20495 3.987603 1.849008 -19.47182 5.892518 -2.875915 -23.96804 11.65236 92.00693 18.52044 -14.93307 -0 0 16.95998 -21.74906 10.02341 10.21434 4.801258 -23.16651 -6.750371 -90.66037 14.10508 23.41022 0 0 -14.29454 10.31783 13.86566 0.2477857
86.97423 104.5752 3089.149 0.7375326 -5.637929 -3.051797 0.8178525 -12.83951 2.335721 -0 40.47822 -0 -2.290552 0.40652 -5.125829 -5.802546 7.526908 -11.99731 -0 14.88036 -0 -1.799754 -16.59404 17.14108 0.3718885 -1.887402 4.948028 0.29883 14.04602 -6.291242 1.614039 22.21358 4.098148 1.863925 -19.71916 6.019004 -3.046212 -23.13086 11.61596 93.45591 18.29334 -17.21675 -0 0 14.77768 -20.92822 9.928431 9.308258 5.12333 -24.29102 -7.050165 -89.32336 13.96726 20.82447 0 0 -17.11189 11.44297 14.02598 -1.176549
86.98702 104.3443 3094.516 0.4465749 -4.444031 -2.506723 1.683058 -17.74076 1.485332 -0 30.9804 -0 -3.680886 -1.056255 -4.772023 -5.306134 10.24955 -11.92453 -0 13.28268 -0 -1.363119 -17.70545 16.44969 0.4182954 -2.001202 4.285133 0.6465501 14.11647 -6.96773 1.581626 22.2168 4.199022 1.877152 -19.98319 6.135429 -3.230614 -22.35687 11.58795 94.89423 17.99534 -19.42746 -0 0 12.67776 -20.11061 9.807138 8.41624 5.430409 -25.40629 -7.347012 -88.08157 13.74747 18.37044 0 0 -19.84037 12.58229 14.18121 -2.610395
86.859 103.62 3099.938 0.1413997 -3.538005 -2.093042 2.399192 -22.06088 0.5685316 -0 22.1162 -0 -4.845408 -1.912111 -4.569356 -4.797915 12.72276 -11.44522 -0 12.70407 -0 -1.345363 -18.53226 15.47754 0.4698707 -2.118675 3.669049 0.97503 14.193 -7.605725 1.548771 22.21583 4.287368 1.886826 -20.24991 6.240216 -3.419973 -21.66425 11.56721 96.26374 17.6455 -21.48729 -0 0 10.72905 -19.32767 9.668351 7.571439 5.711259 -26.46721 -7.628902 -86.97082 13.4804 16.12404 0 0 -22.39154 13.6772 14.32169 -3.980123
86.59086 102.5754 3105.559 -0.1212335 -3.062066 -1.776105 2.915588 -25.40635 -0.2666363 -0 15.28172 -0 -5.621616 -1.956994 -4.575121 -4.402829 14.85111 -10.64381 -0 13.77209 -0 -1.792783 -18.92243 14.30992 0.524853 -2.23113 3.154034 1.256061 14.27181 -8.150782 1.518723 22.21033 4.353122 1.889293 -20.49956 6.324141 -3.604105 -21.11956 11.55427 97.44878 17.27807 -23.22317 -0 0 9.104375 -18.64221 9.524072 6.844108 5.940364 -27.38309 -7.874336 -86.08161 13.2127 14.29081 0 0 -24.54761 14.62673 14.44484 -5.158264
86.20772 101.4594 3111.492 -0.2993776 -3.103324 -1.52643 3.272163 -27.24008 -0.8302473 -0 11.41987 -0 -5.92387 -1.271686 -4.794 -4.179329 16.28696 -9.632623 -0 17.01509 -0 -2.65728 -18.67322 13.12825 0.5837647 -2.331683 2.799168 1.45951 14.35369 -8.545225 1.494167 22.19905 4.384208 1.880346 -20.71495 6.37569 -3.776353 -20.80152 11.54989 98.33211 16.93452 -24.45664 -0 0 7.992288 -18.11756 9.38649 6.306726 6.090941 -28.06106 -8.063186 -85.50566 12.99494 13.09906 0 0 -26.07295 15.33212 14.55819 -6.020092
85.74854 100.5488 3117.771 -0.3840415 -3.627356 -1.338233 3.601749 -27.18811 -0.9360084 -0 10.57777 -0 -5.808921 -0.270611 -5.17433 -4.091237 16.62183 -8.573357 -0 22.65019 -0 -3.770323 -17.63861 12.17701 0.6489918 -2.418438 2.640612 1.567504 14.44351 -8.755194 1.475861 22.18038 4.372459 1.857473 -20.88949 6.386427 -3.936225 -20.76377 11.55465 98.84922 16.64566 -25.0874 -0 0 7.508399 -17.78798 9.262524 6.000187 6.147745 -28.44963 -8.185991 -85.29375 12.85796 12.69315 0 0 -26.82431 15.74396 14.67529 -6.503296
